<svg xmlns="http://www.w3.org/2000/svg" version="1.1" xmlns:xlink="http://www.w3.org/1999/xlink" xmlns:svgjs="http://svgjs.com/svgjs" width="1440" height="560" preserveAspectRatio="none" viewBox="0 0 1440 560"><g mask="url(&quot;#SvgjsMask1098&quot;)" fill="none"><rect width="1440" height="560" x="0" y="0" fill="#0e2a47"></rect><path d="M 0,46 C 41.2,79.8 123.6,209.4 206,215 C 288.4,220.6 329.6,72.4 412,74 C 494.4,75.6 535.6,229 618,223 C 700.4,217 741.6,44.8 824,44 C 906.4,43.2 947.6,217.6 1030,219 C 1112.4,220.4 1154,47.8 1236,51 C 1318,54.2 1399.2,198.2 1440,235L1440 560L0 560z" fill="#184a7e"></path><path d="M 0,460 C 57.6,437 172.8,336.2 288,345 C 403.2,353.8 460.8,502.8 576,504 C 691.2,505.2 748.8,359 864,351 C 979.2,343 1036.8,476.4 1152,464 C 1267.2,451.6 1382.4,324 1440,289L1440 560L0 560z" fill="#2264ab"></path></g><defs><mask id="SvgjsMask1098"><rect width="1440" height="560" fill="#ffffff"></rect></mask></defs></svg>